<?xml version="1.0" encoding="UTF-8" standalone="no"?>
<svg width="283px" height="47px" viewBox="0 0 283 47" version="1.1" xmlns="http://www.w3.org/2000/svg" xmlns:xlink="http://www.w3.org/1999/xlink">
    <!-- Generator: Sketch 3.8.3 (29802) - http://www.bohemiancoding.com/sketch -->
    <title>logotype</title>
    <desc>Created with Sketch.</desc>
    <defs></defs>
    <g id="Page-1" stroke="none" stroke-width="1" fill="none" fill-rule="evenodd">
        <g id="Desktop-HD" transform="translate(-29.000000, -24.000000)" fill="#FFFFFF">
            <g id="header">
                <g id="logotype" transform="translate(29.000000, 24.000000)">
                    <path d="M116.418824,46.1311714 C108.515932,46.1311714 102.086714,39.6165735 102.086714,31.6089175 L102.086714,20.2795136 C102.086714,18.2640674 103.705103,16.6241238 105.694161,16.6241238 C107.683218,16.6241238 109.301689,18.2640674 109.301689,20.2795136 L109.301689,31.6089175 C109.301689,35.5853496 112.494456,38.8204748 116.418824,38.8204748 L119.651921,38.8204748 C123.576207,38.8204748 126.769219,35.5853496 126.769219,31.6089175 L126.769219,20.2795136 C126.769219,18.2640674 128.387527,16.6241238 130.376666,16.6241238 C132.365805,16.6241238 133.984195,18.2640674 133.984195,20.2795136 L133.984195,31.6089175 C133.984195,39.6165735 127.554895,46.1311714 119.651921,46.1311714 L116.418824,46.1311714 Z" id="u"></path>
                    <path d="M94.0845332,46.929815 C92.6147054,46.929815 90.720217,46.387367 89.8110131,44.8650478 L65.7846822,5.6298291 C65.2778873,4.79924709 65.1202451,3.81804956 65.3412878,2.86785379 C65.5623305,1.91740935 66.1354709,1.11111481 66.9550961,0.597679189 C67.5260277,0.239832628 68.1812206,0.050672134 68.8495845,0.050672134 C70.1103952,0.050672134 71.258394,0.698559259 71.9206223,1.7835381 L92.1227994,34.8672277 L92.1227994,20.2795716 C92.1227994,18.2640425 93.7411889,16.6242647 95.7302463,16.6242647 C97.7194673,16.6242647 99.3378568,18.2640425 99.3378568,20.2795716 L99.3378568,42.2050302 C99.3378568,44.4613617 97.2855625,45.9947056 96.0732634,46.5447797 C95.5178751,46.7966898 94.8304502,46.929815 94.0845332,46.929815" id="v"></path>
                    <path d="M53.7762534,46.1311714 C45.8734438,46.1311714 39.4439799,39.6165735 39.4439799,31.6089175 L39.4439799,20.2795136 C39.4439799,18.2640674 41.0623694,16.6241238 43.0516722,16.6241238 C45.0406477,16.6241238 46.6589554,18.2640674 46.6589554,20.2795136 L46.6589554,31.6089175 C46.6589554,35.5853496 49.8519676,38.8204748 53.7762534,38.8204748 L57.0091874,38.8204748 C60.933964,38.8204748 64.1264853,35.5853496 64.1264853,31.6089175 L64.1264853,20.2795136 C64.1264853,18.2640674 65.744793,16.6241238 67.7342595,16.6241238 C69.7231532,16.6241238 71.3414609,18.2640674 71.3414609,20.2795136 L71.3414609,31.6089175 C71.3414609,39.6165735 64.9121606,46.1311714 57.0091874,46.1311714 L53.7762534,46.1311714 Z" id="u"></path>
                    <path d="M31.5685839,46.9332136 C30.1170808,46.9332136 28.2407536,46.4206898 27.3291773,44.9825063 L7.24971087,12.1196422 L7.24971087,42.4757568 C7.24971087,44.4912859 5.63132137,46.1311466 3.64218217,46.1311466 C1.65312479,46.1311466 0.0346534799,44.4912859 0.0346534799,42.4757568 L0.0346534799,4.78300018 C0.0346534799,3.11072857 1.7918696,0.966384656 3.72088059,0.283765608 C4.15985739,0.128591005 4.65822613,0.0498432099 5.20273407,0.0498432099 C6.75199658,0.0498432099 8.82850574,0.774820282 9.62489768,2.11850635 L29.6354825,34.8680566 L29.6354825,20.2795716 C29.6354825,18.2640425 31.253872,16.6242647 33.2430112,16.6242647 C35.2318232,16.6242647 36.8502945,18.2640425 36.8502945,20.2795716 L36.8502945,42.2050302 C36.8502945,44.4613617 34.7982457,45.9947056 33.5856193,46.5449455 C33.0254862,46.7990108 32.3280808,46.9332136 31.5685839,46.9332136" id="N"></path>
                    <path d="M153.182,32.03 L153.182,44 L151.04,44 L151.04,14.285 L158.705,14.285 C162.191017,14.285 164.819491,15.0479924 166.5905,16.574 C168.361509,18.1000076 169.247,20.2769859 169.247,23.105 C169.247,24.4070065 169.005502,25.6039945 168.5225,26.696 C168.039498,27.7880055 167.343005,28.729496 166.433,29.5205 C165.522995,30.311504 164.417007,30.9274978 163.115,31.3685 C161.812993,31.8095022 160.343008,32.03 158.705,32.03 L153.182,32.03 Z M153.182,30.308 L158.705,30.308 C160.021007,30.308 161.196995,30.1260018 162.233,29.762 C163.269005,29.3979982 164.147496,28.8940032 164.8685,28.25 C165.589504,27.6059968 166.142498,26.8465044 166.5275,25.9715 C166.912502,25.0964956 167.105,24.1410052 167.105,23.105 C167.105,20.8229886 166.401507,19.0660062 164.9945,17.834 C163.587493,16.6019938 161.491014,15.986 158.705,15.986 L153.182,15.986 L153.182,30.308 Z M182.369,30.56 L182.369,44 L180.227,44 L180.227,14.285 L187.808,14.285 C191.238017,14.285 193.799992,14.9464934 195.494,16.2695 C197.188009,17.5925066 198.035,19.5349872 198.035,22.097 C198.035,23.2310057 197.839002,24.2669953 197.447,25.205 C197.054998,26.1430047 196.491504,26.9654965 195.7565,27.6725 C195.021497,28.3795035 194.136005,28.9604977 193.1,29.4155 C192.063995,29.8705023 190.895007,30.1679993 189.593,30.308 C189.929002,30.518001 190.229999,30.7979982 190.496,31.148 L200.723,44 L198.854,44 C198.629999,44 198.437501,43.9580004 198.2765,43.874 C198.115499,43.7899996 197.958001,43.650001 197.804,43.454 L188.291,31.4 C188.052999,31.0919985 187.797502,30.8750006 187.5245,30.749 C187.251499,30.6229994 186.828003,30.56 186.254,30.56 L182.369,30.56 Z M182.369,28.964 L187.535,28.964 C188.851007,28.964 190.030495,28.8065016 191.0735,28.4915 C192.116505,28.1764984 192.998497,27.7250029 193.7195,27.137 C194.440504,26.5489971 194.989998,25.8420041 195.368,25.016 C195.746002,24.1899959 195.935,23.2590052 195.935,22.223 C195.935,20.1089894 195.242007,18.5410051 193.856,17.519 C192.469993,16.4969949 190.454013,15.986 187.808,15.986 L182.369,15.986 L182.369,28.964 Z M213.299,44 L211.136,44 L211.136,14.285 L213.299,14.285 L213.299,44 Z M228.227001,14.285 C228.423002,14.285 228.577,14.3094998 228.689001,14.3585 C228.801001,14.4075002 228.92,14.5159992 229.046001,14.684 L248.282001,40.43 C248.24,40.0099979 248.219001,39.604002 248.219001,39.212 L248.219001,14.285 L250.109001,14.285 L250.109001,44 L249.080001,44 C248.757999,44 248.499002,43.8600014 248.303001,43.58 L228.983001,17.792 C229.025001,18.2120021 229.046001,18.6109981 229.046001,18.989 L229.046001,44 L227.177001,44 L227.177001,14.285 L228.227001,14.285 Z M282.593001,14.285 L282.593001,16.112 L272.156001,16.112 L272.156001,44 L270.014001,44 L270.014001,16.112 L259.514001,16.112 L259.514001,14.285 L282.593001,14.285 Z" id="PRINT"></path>
                </g>
            </g>
        </g>
    </g>
</svg>